<?xml version="1.0" encoding="UTF-8" standalone="no"?>
<!-- Created with Inkscape (http://www.inkscape.org/) -->

<svg
   width="1242mm"
   height="2436mm"
   viewBox="0 0 1242 2436"
   version="1.1"
   id="svg5"
   xml:space="preserve"
   inkscape:export-filename="splash.png"
   inkscape:export-xdpi="96"
   inkscape:export-ydpi="96"
   inkscape:version="1.2.2 (b0a84865, 2022-12-01)"
   sodipodi:docname="drawing.svg"
   xmlns:inkscape="http://www.inkscape.org/namespaces/inkscape"
   xmlns:sodipodi="http://sodipodi.sourceforge.net/DTD/sodipodi-0.dtd"
   xmlns="http://www.w3.org/2000/svg"
   xmlns:svg="http://www.w3.org/2000/svg"><sodipodi:namedview
     id="namedview7"
     pagecolor="#ffffff"
     bordercolor="#000000"
     borderopacity="0.25"
     inkscape:showpageshadow="2"
     inkscape:pageopacity="0"
     inkscape:pagecheckerboard="0"
     inkscape:deskcolor="#d1d1d1"
     inkscape:document-units="mm"
     showgrid="false"
     inkscape:zoom="0.14866305"
     inkscape:cx="-1634.5689"
     inkscape:cy="4241.1346"
     inkscape:window-width="3840"
     inkscape:window-height="2107"
     inkscape:window-x="2560"
     inkscape:window-y="25"
     inkscape:window-maximized="1"
     inkscape:current-layer="svg5"><inkscape:page
       x="0"
       y="0"
       width="1242"
       height="2436"
       id="page55" /><inkscape:page
       x="1252"
       y="0"
       width="137.90048"
       height="90.066643"
       id="page57" /></sodipodi:namedview><defs
     id="defs2" /><rect
     style="fill:#696969;stroke-width:0.264583;stroke:#e6e6e6;fill-opacity:1"
     id="rect287"
     width="1242"
     height="2436"
     x="0"
     y="0" /><text
     xml:space="preserve"
     style="font-variant:normal;font-weight:800;font-stretch:normal;font-size:162.332px;font-family:'Montserrat ExtraBold';-inkscape-font-specification:Montserrat-ExtraBold;writing-mode:lr-tb;fill:#ffffff;fill-opacity:1;fill-rule:nonzero;stroke:none;stroke-width:2.88439"
     id="text21"
     x="362.50848"
     y="1245.567"><tspan
       x="362.50848 493.34784 595.29303 642.53082 740.41791"
       y="1245.567"
       sodipodi:role="line"
       id="tspan19"
       style="stroke-width:2.88439;fill:#ffffff;fill-opacity:1">Ha cH</tspan></text><g
     id="g23"
     transform="matrix(2.8843871,0,0,-2.8843873,637.72268,1143.2454)"><path
       d="M 0,0 -7.259,-39.084 -14.52,0 Z"
       style="fill:#db4023;fill-opacity:1;fill-rule:nonzero;stroke:none"
       id="path25" /></g><text
     xml:space="preserve"
     style="font-variant:normal;font-weight:bold;font-stretch:normal;font-size:41.8805px;font-family:Montserrat;-inkscape-font-specification:Montserrat-Bold;writing-mode:lr-tb;fill:#ffffff;fill-opacity:1;fill-rule:nonzero;stroke:none;stroke-width:2.88439"
     id="text33"
     x="314.11682"
     y="1298.7004"><tspan
       x="314.11682 347.95654 373.7547 399.59485 413.83435 432.05219 460.99231 478.4975 504.9245 529.508 558.4472"
       y="1298.7004"
       sodipodi:role="line"
       id="tspan27"
       style="stroke-width:2.88439;fill:#ffffff;fill-opacity:1">Healthtech </tspan><tspan
       x="570.29932 595.67529 613.43701 639.2771 668.21625 690.45435 703.06097 728.90112 747.11896 759.72461 787.15668"
       y="1298.7004"
       sodipodi:role="line"
       id="tspan29"
       style="stroke-width:2.88439;fill:#ffffff;fill-opacity:1">Translation</tspan><tspan
       x="816.09576 827.94794 861.78754 890.55902"
       y="1298.7004"
       sodipodi:role="line"
       id="tspan31"
       style="stroke-width:2.88439;fill:#ffffff;fill-opacity:1"> Hub</tspan></text><g
     id="g35"
     transform="matrix(2.8843871,0,0,-2.8843873,617.90762,1169.984)"><path
       d="m 0,0 -13.96,9.601 -12.974,8.921 66.465,14.554 z"
       style="fill:#ffffff;fill-opacity:1;fill-rule:nonzero;stroke:none"
       id="path37" /></g><g
     id="g39"
     transform="matrix(2.8843871,0,0,-2.8843873,617.90762,1169.984)"><path
       d="m 0,0 -13.96,9.601 -12.974,8.921 66.465,14.554 z"
       style="fill:none;stroke:#ffffff;stroke-width:0.927;stroke-linecap:butt;stroke-linejoin:miter;stroke-miterlimit:10;stroke-dasharray:none;stroke-opacity:1"
       id="path41" /></g><g
     id="g43"
     transform="matrix(2.8843871,0,0,-2.8843873,615.23318,1156.5661)"><path
       d="M 0,0 -13.96,9.601 -26.934,18.522 39.53,33.076 Z"
       style="fill:#db4023;fill-opacity:1;fill-rule:nonzero;stroke:none"
       id="path45" /></g><g
     id="g47"
     transform="matrix(2.8843871,0,0,-2.8843873,729.25377,1061.1619)"><path
       d="m 0,0 -56.504,-21.403 3.419,-11.266 0.987,8.272 z"
       style="fill:#a11e06;fill-opacity:1;fill-rule:nonzero;stroke:none"
       id="path49" /></g><g
     id="g51"
     transform="matrix(2.8843871,0,0,-2.8843873,593.95539,1141.933)"><path
       d="M 0,0 -5.191,3.606 -6.178,-4.667 Z"
       style="fill:#a11e06;fill-opacity:1;fill-rule:nonzero;stroke:none"
       id="path53" /></g></svg>
